<mxfile host="app.diagrams.net" agent="Mozilla/5.0 (Windows NT 10.0; Win64; x64) AppleWebKit/537.36 (KHTML, like Gecko) Chrome/132.0.0.0 Safari/537.36 Edg/132.0.0.0" version="26.0.9">
  <diagram name="Page-1" id="5f0bae14-7c28-e335-631c-24af17079c00">
    <mxGraphModel dx="1282" dy="599" grid="1" gridSize="10" guides="1" tooltips="1" connect="1" arrows="1" fold="1" page="1" pageScale="1" pageWidth="1100" pageHeight="850" background="none" math="0" shadow="0">
      <root>
        <mxCell id="0" />
        <mxCell id="1" parent="0" />
        <mxCell id="4xzkVWgsydtAAtBrLDLV-1" value="Web Portal&lt;div&gt;&lt;br&gt;&lt;/div&gt;" style="shape=module;align=left;spacingLeft=20;align=center;verticalAlign=top;whiteSpace=wrap;html=1;" parent="1" vertex="1">
          <mxGeometry x="610" y="120" width="100" height="50" as="geometry" />
        </mxCell>
        <mxCell id="4xzkVWgsydtAAtBrLDLV-2" value="API Gateway&lt;div&gt;&lt;br&gt;&lt;/div&gt;" style="shape=module;align=left;spacingLeft=20;align=center;verticalAlign=top;whiteSpace=wrap;html=1;" parent="1" vertex="1">
          <mxGeometry x="460" y="280" width="100" height="50" as="geometry" />
        </mxCell>
        <mxCell id="4xzkVWgsydtAAtBrLDLV-9" value="" style="rounded=0;orthogonalLoop=1;jettySize=auto;html=1;endArrow=halfCircle;endFill=0;endSize=6;strokeWidth=1;sketch=0;exitX=0.5;exitY=1;exitDx=0;exitDy=0;" parent="1" source="4xzkVWgsydtAAtBrLDLV-1" target="4xzkVWgsydtAAtBrLDLV-11" edge="1">
          <mxGeometry relative="1" as="geometry">
            <mxPoint x="520" y="140" as="sourcePoint" />
          </mxGeometry>
        </mxCell>
        <mxCell id="4xzkVWgsydtAAtBrLDLV-10" value="" style="rounded=0;orthogonalLoop=1;jettySize=auto;html=1;endArrow=oval;endFill=0;sketch=0;sourcePerimeterSpacing=0;targetPerimeterSpacing=0;endSize=10;exitX=0.5;exitY=0;exitDx=0;exitDy=0;" parent="1" source="4xzkVWgsydtAAtBrLDLV-2" target="4xzkVWgsydtAAtBrLDLV-11" edge="1">
          <mxGeometry relative="1" as="geometry">
            <mxPoint x="520" y="155" as="sourcePoint" />
          </mxGeometry>
        </mxCell>
        <mxCell id="4xzkVWgsydtAAtBrLDLV-11" value="" style="ellipse;whiteSpace=wrap;html=1;align=center;aspect=fixed;fillColor=none;strokeColor=none;resizable=0;perimeter=centerPerimeter;rotatable=0;allowArrows=0;points=[];outlineConnect=1;" parent="1" vertex="1">
          <mxGeometry x="610" y="240" width="10" height="10" as="geometry" />
        </mxCell>
        <mxCell id="4xzkVWgsydtAAtBrLDLV-12" value="Admin Dashboard&lt;div&gt;&lt;br&gt;&lt;/div&gt;" style="shape=module;align=left;spacingLeft=20;align=center;verticalAlign=top;whiteSpace=wrap;html=1;" parent="1" vertex="1">
          <mxGeometry x="270" y="120" width="100" height="50" as="geometry" />
        </mxCell>
        <mxCell id="4xzkVWgsydtAAtBrLDLV-14" value="Notification Management" style="shape=module;align=left;spacingLeft=20;align=center;verticalAlign=top;whiteSpace=wrap;html=1;" parent="1" vertex="1">
          <mxGeometry x="240" y="540" width="100" height="50" as="geometry" />
        </mxCell>
        <mxCell id="4xzkVWgsydtAAtBrLDLV-15" value="Recruitment Management&lt;div&gt;&lt;br&gt;&lt;/div&gt;" style="shape=module;align=left;spacingLeft=20;align=center;verticalAlign=top;whiteSpace=wrap;html=1;" parent="1" vertex="1">
          <mxGeometry x="70" y="540" width="100" height="50" as="geometry" />
        </mxCell>
        <mxCell id="4xzkVWgsydtAAtBrLDLV-16" value="Job Management&lt;div&gt;&lt;br&gt;&lt;/div&gt;" style="shape=module;align=left;spacingLeft=20;align=center;verticalAlign=top;whiteSpace=wrap;html=1;" parent="1" vertex="1">
          <mxGeometry x="390" y="540" width="100" height="50" as="geometry" />
        </mxCell>
        <mxCell id="4xzkVWgsydtAAtBrLDLV-17" value="Assessment Management" style="shape=module;align=left;spacingLeft=20;align=center;verticalAlign=top;whiteSpace=wrap;html=1;" parent="1" vertex="1">
          <mxGeometry x="545" y="540" width="100" height="50" as="geometry" />
        </mxCell>
        <mxCell id="4xzkVWgsydtAAtBrLDLV-18" value="User Management&lt;div&gt;&lt;br&gt;&lt;/div&gt;" style="shape=module;align=left;spacingLeft=20;align=center;verticalAlign=top;whiteSpace=wrap;html=1;" parent="1" vertex="1">
          <mxGeometry x="710" y="540" width="100" height="50" as="geometry" />
        </mxCell>
        <mxCell id="4xzkVWgsydtAAtBrLDLV-19" value="AI Recommendations&lt;div&gt;&lt;br&gt;&lt;/div&gt;" style="shape=module;align=left;spacingLeft=20;align=center;verticalAlign=top;whiteSpace=wrap;html=1;" parent="1" vertex="1">
          <mxGeometry x="880" y="540" width="130" height="50" as="geometry" />
        </mxCell>
        <mxCell id="4xzkVWgsydtAAtBrLDLV-20" value="" style="rounded=0;orthogonalLoop=1;jettySize=auto;html=1;endArrow=halfCircle;endFill=0;endSize=6;strokeWidth=1;sketch=0;exitX=0.5;exitY=1;exitDx=0;exitDy=0;" parent="1" source="4xzkVWgsydtAAtBrLDLV-12" target="4xzkVWgsydtAAtBrLDLV-22" edge="1">
          <mxGeometry relative="1" as="geometry">
            <mxPoint x="620" y="295" as="sourcePoint" />
          </mxGeometry>
        </mxCell>
        <mxCell id="4xzkVWgsydtAAtBrLDLV-21" value="" style="rounded=0;orthogonalLoop=1;jettySize=auto;html=1;endArrow=oval;endFill=0;sketch=0;sourcePerimeterSpacing=0;targetPerimeterSpacing=0;endSize=10;exitX=0.25;exitY=0;exitDx=0;exitDy=0;" parent="1" source="4xzkVWgsydtAAtBrLDLV-2" target="4xzkVWgsydtAAtBrLDLV-22" edge="1">
          <mxGeometry relative="1" as="geometry">
            <mxPoint x="580" y="295" as="sourcePoint" />
          </mxGeometry>
        </mxCell>
        <mxCell id="4xzkVWgsydtAAtBrLDLV-22" value="" style="ellipse;whiteSpace=wrap;html=1;align=center;aspect=fixed;fillColor=none;strokeColor=none;resizable=0;perimeter=centerPerimeter;rotatable=0;allowArrows=0;points=[];outlineConnect=1;" parent="1" vertex="1">
          <mxGeometry x="370" y="240" width="10" height="10" as="geometry" />
        </mxCell>
        <mxCell id="4xzkVWgsydtAAtBrLDLV-23" value="" style="rounded=0;orthogonalLoop=1;jettySize=auto;html=1;endArrow=halfCircle;endFill=0;endSize=6;strokeWidth=1;sketch=0;exitX=0;exitY=1;exitDx=10;exitDy=0;exitPerimeter=0;" parent="1" source="4xzkVWgsydtAAtBrLDLV-2" target="4xzkVWgsydtAAtBrLDLV-25" edge="1">
          <mxGeometry relative="1" as="geometry">
            <mxPoint x="370" y="310" as="sourcePoint" />
            <Array as="points">
              <mxPoint x="260" y="390" />
            </Array>
          </mxGeometry>
        </mxCell>
        <mxCell id="4xzkVWgsydtAAtBrLDLV-24" value="" style="rounded=0;orthogonalLoop=1;jettySize=auto;html=1;endArrow=oval;endFill=0;sketch=0;sourcePerimeterSpacing=0;targetPerimeterSpacing=0;endSize=10;exitX=0.5;exitY=0;exitDx=0;exitDy=0;" parent="1" source="4xzkVWgsydtAAtBrLDLV-15" target="4xzkVWgsydtAAtBrLDLV-25" edge="1">
          <mxGeometry relative="1" as="geometry">
            <mxPoint x="580" y="295" as="sourcePoint" />
          </mxGeometry>
        </mxCell>
        <mxCell id="4xzkVWgsydtAAtBrLDLV-25" value="" style="ellipse;whiteSpace=wrap;html=1;align=center;aspect=fixed;fillColor=none;strokeColor=none;resizable=0;perimeter=centerPerimeter;rotatable=0;allowArrows=0;points=[];outlineConnect=1;" parent="1" vertex="1">
          <mxGeometry x="140" y="460" width="10" height="10" as="geometry" />
        </mxCell>
        <mxCell id="4xzkVWgsydtAAtBrLDLV-26" value="" style="rounded=0;orthogonalLoop=1;jettySize=auto;html=1;endArrow=halfCircle;endFill=0;endSize=6;strokeWidth=1;sketch=0;exitX=0.348;exitY=1.032;exitDx=0;exitDy=0;exitPerimeter=0;" parent="1" source="4xzkVWgsydtAAtBrLDLV-2" target="4xzkVWgsydtAAtBrLDLV-28" edge="1">
          <mxGeometry relative="1" as="geometry">
            <mxPoint x="430" y="330" as="sourcePoint" />
            <Array as="points">
              <mxPoint x="380" y="400" />
            </Array>
          </mxGeometry>
        </mxCell>
        <mxCell id="4xzkVWgsydtAAtBrLDLV-27" value="" style="rounded=0;orthogonalLoop=1;jettySize=auto;html=1;endArrow=oval;endFill=0;sketch=0;sourcePerimeterSpacing=0;targetPerimeterSpacing=0;endSize=10;exitX=0.356;exitY=-0.032;exitDx=0;exitDy=0;exitPerimeter=0;" parent="1" source="4xzkVWgsydtAAtBrLDLV-14" target="4xzkVWgsydtAAtBrLDLV-28" edge="1">
          <mxGeometry relative="1" as="geometry">
            <mxPoint x="580" y="295" as="sourcePoint" />
          </mxGeometry>
        </mxCell>
        <mxCell id="4xzkVWgsydtAAtBrLDLV-28" value="" style="ellipse;whiteSpace=wrap;html=1;align=center;aspect=fixed;fillColor=none;strokeColor=none;resizable=0;perimeter=centerPerimeter;rotatable=0;allowArrows=0;points=[];outlineConnect=1;" parent="1" vertex="1">
          <mxGeometry x="310" y="470" width="10" height="10" as="geometry" />
        </mxCell>
        <mxCell id="4xzkVWgsydtAAtBrLDLV-29" value="" style="rounded=0;orthogonalLoop=1;jettySize=auto;html=1;endArrow=halfCircle;endFill=0;endSize=6;strokeWidth=1;sketch=0;exitX=0.428;exitY=1;exitDx=0;exitDy=0;exitPerimeter=0;" parent="1" source="4xzkVWgsydtAAtBrLDLV-2" target="4xzkVWgsydtAAtBrLDLV-31" edge="1">
          <mxGeometry relative="1" as="geometry">
            <mxPoint x="500" y="350" as="sourcePoint" />
          </mxGeometry>
        </mxCell>
        <mxCell id="4xzkVWgsydtAAtBrLDLV-30" value="" style="rounded=0;orthogonalLoop=1;jettySize=auto;html=1;endArrow=oval;endFill=0;sketch=0;sourcePerimeterSpacing=0;targetPerimeterSpacing=0;endSize=10;exitX=0.436;exitY=-0.08;exitDx=0;exitDy=0;exitPerimeter=0;" parent="1" source="4xzkVWgsydtAAtBrLDLV-16" target="4xzkVWgsydtAAtBrLDLV-31" edge="1">
          <mxGeometry relative="1" as="geometry">
            <mxPoint x="580" y="295" as="sourcePoint" />
          </mxGeometry>
        </mxCell>
        <mxCell id="4xzkVWgsydtAAtBrLDLV-31" value="" style="ellipse;whiteSpace=wrap;html=1;align=center;aspect=fixed;fillColor=none;strokeColor=none;resizable=0;perimeter=centerPerimeter;rotatable=0;allowArrows=0;points=[];outlineConnect=1;" parent="1" vertex="1">
          <mxGeometry x="450" y="470" width="10" height="10" as="geometry" />
        </mxCell>
        <mxCell id="4xzkVWgsydtAAtBrLDLV-32" value="" style="rounded=0;orthogonalLoop=1;jettySize=auto;html=1;endArrow=halfCircle;endFill=0;endSize=6;strokeWidth=1;sketch=0;exitX=0.62;exitY=1;exitDx=0;exitDy=0;exitPerimeter=0;" parent="1" source="4xzkVWgsydtAAtBrLDLV-2" target="4xzkVWgsydtAAtBrLDLV-34" edge="1">
          <mxGeometry relative="1" as="geometry">
            <mxPoint x="550" y="340" as="sourcePoint" />
          </mxGeometry>
        </mxCell>
        <mxCell id="4xzkVWgsydtAAtBrLDLV-34" value="" style="ellipse;whiteSpace=wrap;html=1;align=center;aspect=fixed;fillColor=none;strokeColor=none;resizable=0;perimeter=centerPerimeter;rotatable=0;allowArrows=0;points=[];outlineConnect=1;" parent="1" vertex="1">
          <mxGeometry x="580" y="470" width="10" height="10" as="geometry" />
        </mxCell>
        <mxCell id="4xzkVWgsydtAAtBrLDLV-38" value="" style="rounded=0;orthogonalLoop=1;jettySize=auto;html=1;endArrow=halfCircle;endFill=0;endSize=6;strokeWidth=1;sketch=0;exitX=0.75;exitY=1;exitDx=0;exitDy=0;" parent="1" source="4xzkVWgsydtAAtBrLDLV-2" target="4xzkVWgsydtAAtBrLDLV-40" edge="1">
          <mxGeometry relative="1" as="geometry">
            <mxPoint x="600" y="320" as="sourcePoint" />
            <Array as="points" />
          </mxGeometry>
        </mxCell>
        <mxCell id="4xzkVWgsydtAAtBrLDLV-39" value="" style="rounded=0;orthogonalLoop=1;jettySize=auto;html=1;endArrow=oval;endFill=0;sketch=0;sourcePerimeterSpacing=0;targetPerimeterSpacing=0;endSize=10;exitX=0.25;exitY=0;exitDx=0;exitDy=0;" parent="1" source="4xzkVWgsydtAAtBrLDLV-18" target="4xzkVWgsydtAAtBrLDLV-40" edge="1">
          <mxGeometry relative="1" as="geometry">
            <mxPoint x="810" y="285" as="sourcePoint" />
          </mxGeometry>
        </mxCell>
        <mxCell id="4xzkVWgsydtAAtBrLDLV-86" value="&lt;b style=&quot;background-color: rgb(251, 251, 251);&quot;&gt;&lt;font style=&quot;font-size: 12px;&quot;&gt;IUserService&lt;/font&gt;&lt;/b&gt;" style="edgeLabel;html=1;align=center;verticalAlign=middle;resizable=0;points=[];" parent="4xzkVWgsydtAAtBrLDLV-39" vertex="1" connectable="0">
          <mxGeometry x="-0.0365" relative="1" as="geometry">
            <mxPoint x="5" y="11" as="offset" />
          </mxGeometry>
        </mxCell>
        <mxCell id="4xzkVWgsydtAAtBrLDLV-40" value="" style="ellipse;whiteSpace=wrap;html=1;align=center;aspect=fixed;fillColor=none;strokeColor=none;resizable=0;perimeter=centerPerimeter;rotatable=0;allowArrows=0;points=[];outlineConnect=1;" parent="1" vertex="1">
          <mxGeometry x="710" y="460" width="10" height="10" as="geometry" />
        </mxCell>
        <mxCell id="4xzkVWgsydtAAtBrLDLV-44" value="" style="rounded=0;orthogonalLoop=1;jettySize=auto;html=1;endArrow=halfCircle;endFill=0;endSize=6;strokeWidth=1;sketch=0;exitX=0.86;exitY=1;exitDx=0;exitDy=0;exitPerimeter=0;" parent="1" source="4xzkVWgsydtAAtBrLDLV-2" target="4xzkVWgsydtAAtBrLDLV-46" edge="1">
          <mxGeometry relative="1" as="geometry">
            <mxPoint x="550" y="310" as="sourcePoint" />
            <Array as="points" />
          </mxGeometry>
        </mxCell>
        <mxCell id="4xzkVWgsydtAAtBrLDLV-45" value="" style="rounded=0;orthogonalLoop=1;jettySize=auto;html=1;endArrow=oval;endFill=0;sketch=0;sourcePerimeterSpacing=0;targetPerimeterSpacing=0;endSize=10;exitX=0.308;exitY=0;exitDx=0;exitDy=0;exitPerimeter=0;" parent="1" source="4xzkVWgsydtAAtBrLDLV-19" target="4xzkVWgsydtAAtBrLDLV-46" edge="1">
          <mxGeometry relative="1" as="geometry">
            <mxPoint x="920" y="275" as="sourcePoint" />
          </mxGeometry>
        </mxCell>
        <mxCell id="4xzkVWgsydtAAtBrLDLV-85" value="&lt;b&gt;&lt;font style=&quot;font-size: 12px;&quot;&gt;IRecommendationService&lt;/font&gt;&lt;/b&gt;" style="edgeLabel;html=1;align=center;verticalAlign=middle;resizable=0;points=[];" parent="4xzkVWgsydtAAtBrLDLV-45" vertex="1" connectable="0">
          <mxGeometry x="0.0281" y="-3" relative="1" as="geometry">
            <mxPoint x="20" y="14" as="offset" />
          </mxGeometry>
        </mxCell>
        <mxCell id="4xzkVWgsydtAAtBrLDLV-46" value="" style="ellipse;whiteSpace=wrap;html=1;align=center;aspect=fixed;fillColor=none;strokeColor=none;resizable=0;perimeter=centerPerimeter;rotatable=0;allowArrows=0;points=[];outlineConnect=1;" parent="1" vertex="1">
          <mxGeometry x="900" y="470" width="10" height="10" as="geometry" />
        </mxCell>
        <mxCell id="4xzkVWgsydtAAtBrLDLV-48" value="&lt;b&gt;&lt;font style=&quot;font-size: 12px;&quot;&gt;IUserServices&lt;/font&gt;&lt;/b&gt;&lt;div&gt;&lt;br&gt;&lt;/div&gt;" style="text;html=1;align=center;verticalAlign=middle;resizable=0;points=[];autosize=1;strokeColor=none;fillColor=none;" parent="1" vertex="1">
          <mxGeometry x="545" y="255" width="100" height="40" as="geometry" />
        </mxCell>
        <mxCell id="4xzkVWgsydtAAtBrLDLV-49" value="&lt;b&gt;&lt;font style=&quot;font-size: 12px;&quot;&gt;IDashboardService&lt;/font&gt;&lt;/b&gt;" style="text;html=1;align=center;verticalAlign=middle;resizable=0;points=[];autosize=1;strokeColor=none;fillColor=none;" parent="1" vertex="1">
          <mxGeometry x="330" y="255" width="130" height="30" as="geometry" />
        </mxCell>
        <mxCell id="4xzkVWgsydtAAtBrLDLV-51" value="Data Access" style="shape=module;align=left;spacingLeft=20;align=center;verticalAlign=top;whiteSpace=wrap;html=1;" parent="1" vertex="1">
          <mxGeometry x="480" y="810" width="100" height="50" as="geometry" />
        </mxCell>
        <mxCell id="4xzkVWgsydtAAtBrLDLV-55" value="" style="rounded=0;orthogonalLoop=1;jettySize=auto;html=1;endArrow=halfCircle;endFill=0;endSize=6;strokeWidth=1;sketch=0;exitX=0.576;exitY=0.96;exitDx=0;exitDy=0;exitPerimeter=0;" parent="1" source="4xzkVWgsydtAAtBrLDLV-15" target="4xzkVWgsydtAAtBrLDLV-57" edge="1">
          <mxGeometry relative="1" as="geometry">
            <mxPoint x="300" y="505" as="sourcePoint" />
          </mxGeometry>
        </mxCell>
        <mxCell id="4xzkVWgsydtAAtBrLDLV-56" value="" style="rounded=0;orthogonalLoop=1;jettySize=auto;html=1;endArrow=oval;endFill=0;sketch=0;sourcePerimeterSpacing=0;targetPerimeterSpacing=0;endSize=10;exitX=0;exitY=0;exitDx=10;exitDy=0;exitPerimeter=0;" parent="1" source="4xzkVWgsydtAAtBrLDLV-51" target="4xzkVWgsydtAAtBrLDLV-57" edge="1">
          <mxGeometry relative="1" as="geometry">
            <mxPoint x="260" y="505" as="sourcePoint" />
          </mxGeometry>
        </mxCell>
        <mxCell id="4xzkVWgsydtAAtBrLDLV-88" value="&lt;b&gt;&lt;font style=&quot;font-size: 12px;&quot;&gt;IRecruitmentRepository&lt;/font&gt;&lt;/b&gt;" style="edgeLabel;html=1;align=center;verticalAlign=middle;resizable=0;points=[];rotation=-15;" parent="4xzkVWgsydtAAtBrLDLV-56" vertex="1" connectable="0">
          <mxGeometry x="0.3586" y="2" relative="1" as="geometry">
            <mxPoint x="11" y="22" as="offset" />
          </mxGeometry>
        </mxCell>
        <mxCell id="4xzkVWgsydtAAtBrLDLV-57" value="" style="ellipse;whiteSpace=wrap;html=1;align=center;aspect=fixed;fillColor=none;strokeColor=none;resizable=0;perimeter=centerPerimeter;rotatable=0;allowArrows=0;points=[];outlineConnect=1;" parent="1" vertex="1">
          <mxGeometry x="260" y="760" width="10" height="10" as="geometry" />
        </mxCell>
        <mxCell id="4xzkVWgsydtAAtBrLDLV-58" value="" style="rounded=0;orthogonalLoop=1;jettySize=auto;html=1;endArrow=halfCircle;endFill=0;endSize=6;strokeWidth=1;sketch=0;exitX=0.6;exitY=1.04;exitDx=0;exitDy=0;exitPerimeter=0;" parent="1" source="4xzkVWgsydtAAtBrLDLV-14" target="4xzkVWgsydtAAtBrLDLV-60" edge="1">
          <mxGeometry relative="1" as="geometry">
            <mxPoint x="450" y="465" as="sourcePoint" />
          </mxGeometry>
        </mxCell>
        <mxCell id="4xzkVWgsydtAAtBrLDLV-59" value="" style="rounded=0;orthogonalLoop=1;jettySize=auto;html=1;endArrow=oval;endFill=0;sketch=0;sourcePerimeterSpacing=0;targetPerimeterSpacing=0;endSize=10;exitX=0.25;exitY=0;exitDx=0;exitDy=0;" parent="1" source="4xzkVWgsydtAAtBrLDLV-51" target="4xzkVWgsydtAAtBrLDLV-60" edge="1">
          <mxGeometry relative="1" as="geometry">
            <mxPoint x="410" y="465" as="sourcePoint" />
          </mxGeometry>
        </mxCell>
        <mxCell id="4xzkVWgsydtAAtBrLDLV-89" value="&lt;font style=&quot;font-size: 12px;&quot;&gt;&lt;b&gt;INotificationRepository&lt;/b&gt;&lt;/font&gt;" style="edgeLabel;html=1;align=center;verticalAlign=middle;resizable=0;points=[];" parent="4xzkVWgsydtAAtBrLDLV-59" vertex="1" connectable="0">
          <mxGeometry x="0.3099" y="1" relative="1" as="geometry">
            <mxPoint x="5" y="-4" as="offset" />
          </mxGeometry>
        </mxCell>
        <mxCell id="4xzkVWgsydtAAtBrLDLV-60" value="" style="ellipse;whiteSpace=wrap;html=1;align=center;aspect=fixed;fillColor=none;strokeColor=none;resizable=0;perimeter=centerPerimeter;rotatable=0;allowArrows=0;points=[];outlineConnect=1;" parent="1" vertex="1">
          <mxGeometry x="295" y="700" width="10" height="10" as="geometry" />
        </mxCell>
        <mxCell id="4xzkVWgsydtAAtBrLDLV-64" value="" style="rounded=0;orthogonalLoop=1;jettySize=auto;html=1;endArrow=halfCircle;endFill=0;endSize=6;strokeWidth=1;sketch=0;exitX=0.5;exitY=1;exitDx=0;exitDy=0;" parent="1" source="4xzkVWgsydtAAtBrLDLV-16" target="4xzkVWgsydtAAtBrLDLV-66" edge="1">
          <mxGeometry relative="1" as="geometry">
            <mxPoint x="550" y="465" as="sourcePoint" />
          </mxGeometry>
        </mxCell>
        <mxCell id="4xzkVWgsydtAAtBrLDLV-65" value="" style="rounded=0;orthogonalLoop=1;jettySize=auto;html=1;endArrow=oval;endFill=0;sketch=0;sourcePerimeterSpacing=0;targetPerimeterSpacing=0;endSize=10;exitX=0.42;exitY=-0.032;exitDx=0;exitDy=0;exitPerimeter=0;" parent="1" source="4xzkVWgsydtAAtBrLDLV-51" target="4xzkVWgsydtAAtBrLDLV-66" edge="1">
          <mxGeometry relative="1" as="geometry">
            <mxPoint x="510" y="465" as="sourcePoint" />
          </mxGeometry>
        </mxCell>
        <mxCell id="4xzkVWgsydtAAtBrLDLV-66" value="" style="ellipse;whiteSpace=wrap;html=1;align=center;aspect=fixed;fillColor=none;strokeColor=none;resizable=0;perimeter=centerPerimeter;rotatable=0;allowArrows=0;points=[];outlineConnect=1;" parent="1" vertex="1">
          <mxGeometry x="470" y="700" width="10" height="10" as="geometry" />
        </mxCell>
        <mxCell id="4xzkVWgsydtAAtBrLDLV-67" value="" style="rounded=0;orthogonalLoop=1;jettySize=auto;html=1;endArrow=halfCircle;endFill=0;endSize=6;strokeWidth=1;sketch=0;exitX=0.5;exitY=1;exitDx=0;exitDy=0;" parent="1" source="4xzkVWgsydtAAtBrLDLV-17" target="4xzkVWgsydtAAtBrLDLV-69" edge="1">
          <mxGeometry relative="1" as="geometry">
            <mxPoint x="645" y="465" as="sourcePoint" />
          </mxGeometry>
        </mxCell>
        <mxCell id="4xzkVWgsydtAAtBrLDLV-68" value="" style="rounded=0;orthogonalLoop=1;jettySize=auto;html=1;endArrow=oval;endFill=0;sketch=0;sourcePerimeterSpacing=0;targetPerimeterSpacing=0;endSize=10;exitX=0.572;exitY=0.016;exitDx=0;exitDy=0;exitPerimeter=0;" parent="1" source="4xzkVWgsydtAAtBrLDLV-51" target="4xzkVWgsydtAAtBrLDLV-69" edge="1">
          <mxGeometry relative="1" as="geometry">
            <mxPoint x="605" y="465" as="sourcePoint" />
          </mxGeometry>
        </mxCell>
        <mxCell id="4xzkVWgsydtAAtBrLDLV-92" value="&lt;b&gt;&lt;font style=&quot;font-size: 12px;&quot;&gt;IAssessmentRepository&lt;/font&gt;&lt;/b&gt;&lt;div&gt;&lt;br&gt;&lt;/div&gt;" style="edgeLabel;html=1;align=center;verticalAlign=middle;resizable=0;points=[];" parent="4xzkVWgsydtAAtBrLDLV-68" vertex="1" connectable="0">
          <mxGeometry x="0.2549" y="2" relative="1" as="geometry">
            <mxPoint x="9" y="2" as="offset" />
          </mxGeometry>
        </mxCell>
        <mxCell id="4xzkVWgsydtAAtBrLDLV-69" value="" style="ellipse;whiteSpace=wrap;html=1;align=center;aspect=fixed;fillColor=none;strokeColor=none;resizable=0;perimeter=centerPerimeter;rotatable=0;allowArrows=0;points=[];outlineConnect=1;" parent="1" vertex="1">
          <mxGeometry x="605" y="700" width="10" height="10" as="geometry" />
        </mxCell>
        <mxCell id="4xzkVWgsydtAAtBrLDLV-70" value="" style="rounded=0;orthogonalLoop=1;jettySize=auto;html=1;endArrow=halfCircle;endFill=0;endSize=6;strokeWidth=1;sketch=0;exitX=0.372;exitY=1.008;exitDx=0;exitDy=0;exitPerimeter=0;" parent="1" source="4xzkVWgsydtAAtBrLDLV-18" target="4xzkVWgsydtAAtBrLDLV-72" edge="1">
          <mxGeometry relative="1" as="geometry">
            <mxPoint x="740" y="475" as="sourcePoint" />
          </mxGeometry>
        </mxCell>
        <mxCell id="4xzkVWgsydtAAtBrLDLV-71" value="" style="rounded=0;orthogonalLoop=1;jettySize=auto;html=1;endArrow=oval;endFill=0;sketch=0;sourcePerimeterSpacing=0;targetPerimeterSpacing=0;endSize=10;exitX=0.75;exitY=0;exitDx=0;exitDy=0;" parent="1" source="4xzkVWgsydtAAtBrLDLV-51" target="4xzkVWgsydtAAtBrLDLV-72" edge="1">
          <mxGeometry relative="1" as="geometry">
            <mxPoint x="700" y="475" as="sourcePoint" />
          </mxGeometry>
        </mxCell>
        <mxCell id="4xzkVWgsydtAAtBrLDLV-93" value="&lt;b&gt;&lt;font style=&quot;font-size: 12px;&quot;&gt;IUserRepository&lt;/font&gt;&lt;/b&gt;" style="edgeLabel;html=1;align=center;verticalAlign=middle;resizable=0;points=[];" parent="4xzkVWgsydtAAtBrLDLV-71" vertex="1" connectable="0">
          <mxGeometry x="0.355" y="-2" relative="1" as="geometry">
            <mxPoint x="15" y="-8" as="offset" />
          </mxGeometry>
        </mxCell>
        <mxCell id="4xzkVWgsydtAAtBrLDLV-72" value="" style="ellipse;whiteSpace=wrap;html=1;align=center;aspect=fixed;fillColor=none;strokeColor=none;resizable=0;perimeter=centerPerimeter;rotatable=0;allowArrows=0;points=[];outlineConnect=1;" parent="1" vertex="1">
          <mxGeometry x="770" y="710" width="10" height="10" as="geometry" />
        </mxCell>
        <mxCell id="4xzkVWgsydtAAtBrLDLV-73" value="" style="rounded=0;orthogonalLoop=1;jettySize=auto;html=1;endArrow=halfCircle;endFill=0;endSize=6;strokeWidth=1;sketch=0;exitX=0.25;exitY=1;exitDx=0;exitDy=0;" parent="1" source="4xzkVWgsydtAAtBrLDLV-19" target="4xzkVWgsydtAAtBrLDLV-75" edge="1">
          <mxGeometry relative="1" as="geometry">
            <mxPoint x="800" y="485" as="sourcePoint" />
          </mxGeometry>
        </mxCell>
        <mxCell id="4xzkVWgsydtAAtBrLDLV-74" value="" style="rounded=0;orthogonalLoop=1;jettySize=auto;html=1;endArrow=oval;endFill=0;sketch=0;sourcePerimeterSpacing=0;targetPerimeterSpacing=0;endSize=10;exitX=1;exitY=0;exitDx=0;exitDy=0;" parent="1" source="4xzkVWgsydtAAtBrLDLV-51" target="4xzkVWgsydtAAtBrLDLV-75" edge="1">
          <mxGeometry relative="1" as="geometry">
            <mxPoint x="579" y="530" as="sourcePoint" />
          </mxGeometry>
        </mxCell>
        <mxCell id="4xzkVWgsydtAAtBrLDLV-94" value="&lt;font style=&quot;font-size: 12px;&quot;&gt;&lt;b&gt;IRecommendationRepository&lt;/b&gt;&lt;/font&gt;" style="edgeLabel;html=1;align=center;verticalAlign=middle;resizable=0;points=[];rotation=11;" parent="4xzkVWgsydtAAtBrLDLV-74" vertex="1" connectable="0">
          <mxGeometry x="0.2028" y="-2" relative="1" as="geometry">
            <mxPoint x="37" y="5" as="offset" />
          </mxGeometry>
        </mxCell>
        <mxCell id="4xzkVWgsydtAAtBrLDLV-75" value="" style="ellipse;whiteSpace=wrap;html=1;align=center;aspect=fixed;fillColor=none;strokeColor=none;resizable=0;perimeter=centerPerimeter;rotatable=0;allowArrows=0;points=[];outlineConnect=1;" parent="1" vertex="1">
          <mxGeometry x="880" y="760" width="10" height="10" as="geometry" />
        </mxCell>
        <mxCell id="4xzkVWgsydtAAtBrLDLV-76" value="&lt;b&gt;&lt;font style=&quot;font-size: 12px;&quot;&gt;IRecruitmentService&lt;/font&gt;&lt;/b&gt;" style="text;html=1;align=center;verticalAlign=middle;resizable=0;points=[];autosize=1;strokeColor=none;fillColor=none;" parent="1" vertex="1">
          <mxGeometry x="70" y="490" width="140" height="30" as="geometry" />
        </mxCell>
        <mxCell id="4xzkVWgsydtAAtBrLDLV-77" value="&lt;b&gt;&lt;font style=&quot;font-size: 12px;&quot;&gt;INotificationService&lt;/font&gt;&lt;/b&gt;" style="text;html=1;align=center;verticalAlign=middle;resizable=0;points=[];autosize=1;strokeColor=none;fillColor=none;" parent="1" vertex="1">
          <mxGeometry x="230" y="490" width="140" height="30" as="geometry" />
        </mxCell>
        <mxCell id="4xzkVWgsydtAAtBrLDLV-78" value="&lt;b&gt;&lt;font style=&quot;font-size: 12px;&quot;&gt;IJobService&lt;/font&gt;&lt;/b&gt;" style="text;html=1;align=center;verticalAlign=middle;resizable=0;points=[];autosize=1;strokeColor=none;fillColor=none;" parent="1" vertex="1">
          <mxGeometry x="395" y="500" width="90" height="30" as="geometry" />
        </mxCell>
        <mxCell id="4xzkVWgsydtAAtBrLDLV-91" value="&lt;b&gt;&lt;font style=&quot;font-size: 12px;&quot;&gt;IJobRepository&lt;/font&gt;&lt;/b&gt;" style="text;html=1;align=center;verticalAlign=middle;resizable=0;points=[];autosize=1;strokeColor=none;fillColor=none;" parent="1" vertex="1">
          <mxGeometry x="440" y="740" width="110" height="30" as="geometry" />
        </mxCell>
        <mxCell id="LLTYblS4rsWgUyR3rwc6-7" value="" style="rounded=0;orthogonalLoop=1;jettySize=auto;html=1;endArrow=oval;endFill=0;sketch=0;sourcePerimeterSpacing=0;targetPerimeterSpacing=0;endSize=10;exitX=0.428;exitY=0.064;exitDx=0;exitDy=0;exitPerimeter=0;entryX=0.36;entryY=1.28;entryDx=0;entryDy=0;entryPerimeter=0;" parent="1" source="4xzkVWgsydtAAtBrLDLV-17" target="4xzkVWgsydtAAtBrLDLV-34" edge="1">
          <mxGeometry relative="1" as="geometry">
            <mxPoint x="588" y="543" as="sourcePoint" />
            <mxPoint x="755.4782146652497" y="370" as="targetPoint" />
          </mxGeometry>
        </mxCell>
        <mxCell id="LLTYblS4rsWgUyR3rwc6-8" value="&lt;b&gt;&lt;font style=&quot;font-size: 12px;&quot;&gt;IAssessmentService&lt;/font&gt;&lt;/b&gt;" style="text;html=1;align=center;verticalAlign=middle;resizable=0;points=[];autosize=1;strokeColor=none;fillColor=none;" parent="1" vertex="1">
          <mxGeometry x="520" y="500" width="140" height="30" as="geometry" />
        </mxCell>
      </root>
    </mxGraphModel>
  </diagram>
</mxfile>
